<svg width="44" height="30" viewBox="0 0 44 30" fill="none" xmlns="http://www.w3.org/2000/svg">
<path d="M43.276 4H16.5618L14.4665 12.9048L19.1808 17.0952L6.60938 26H43.276V4Z" fill="url(#paint0_linear_590_3762)"/>
<path d="M7.04068 23.2473C6.66298 23.904 6.75792 24.7297 7.26964 25.2406C7.78162 25.7527 8.577 25.8155 9.19054 25.3931L20.1041 17.8805C20.5624 17.565 20.8404 17.0304 20.8382 16.4674C20.837 15.9041 20.556 15.3927 20.0962 15.1161L15.8615 12.5685C15.4952 12.3481 15.3805 11.8519 15.6054 11.4609L18.7688 5.96051C19.1464 5.30378 19.0515 4.4781 18.5398 3.96713C18.0278 3.45506 17.2324 3.3923 16.6189 3.81465L5.70533 11.3273C5.24703 11.6428 4.96905 12.1774 4.97126 12.7404C4.9724 13.3036 5.25344 13.8151 5.71327 14.0917L9.94791 16.6393C10.3142 16.8596 10.4289 17.3559 10.204 17.7469L7.04068 23.2473ZM17.4417 5.16214L14.2784 10.6625C13.6032 11.8364 13.9472 13.3239 15.0466 13.9854L19.2813 16.533L8.36773 24.0456L11.5311 18.5453C12.2062 17.3714 11.8623 15.8839 10.7628 15.2224L6.52814 12.6748L17.4417 5.16214Z" fill="#01BEAF"/>
<path d="M7.04068 23.2473C6.66298 23.904 6.75792 24.7297 7.26964 25.2406C7.78162 25.7527 8.577 25.8155 9.19054 25.3931L20.1041 17.8805C20.5624 17.565 20.8404 17.0304 20.8382 16.4674C20.837 15.9041 20.556 15.3927 20.0962 15.1161L15.8615 12.5685C15.4952 12.3481 15.3805 11.8519 15.6054 11.4609L18.7688 5.96051C19.1464 5.30378 19.0515 4.4781 18.5398 3.96713C18.0278 3.45506 17.2324 3.3923 16.6189 3.81465L5.70533 11.3273C5.24703 11.6428 4.96905 12.1774 4.97126 12.7404C4.9724 13.3036 5.25344 13.8151 5.71327 14.0917L9.94791 16.6393C10.3142 16.8596 10.4289 17.3559 10.204 17.7469L7.04068 23.2473ZM17.4417 5.16214L14.2784 10.6625C13.6032 11.8364 13.9472 13.3239 15.0466 13.9854L19.2813 16.533L8.36773 24.0456L11.5311 18.5453C12.2062 17.3714 11.8623 15.8839 10.7628 15.2224L6.52814 12.6748L17.4417 5.16214Z" stroke=""/>
<path d="M6.21484 12.4259L17.4322 5.17773C11.1505 11.8046 16.3105 15.5322 19.6757 16.5677L7.89745 23.8159C14.1792 16.3606 9.58006 13.1162 6.21484 12.4259Z" fill="url(#paint1_linear_590_3762)" stroke="#01BEAF" stroke-width="1.03545"/>
<defs>
<linearGradient id="paint0_linear_590_3762" x1="24.9427" y1="4" x2="24.9427" y2="26" gradientUnits="userSpaceOnUse">
<stop stop-color="#008CEB"/>
<stop offset="1" stop-color="#004F85"/>
</linearGradient>
<linearGradient id="paint1_linear_590_3762" x1="10.1409" y1="23.8159" x2="56.1133" y2="26.2453" gradientUnits="userSpaceOnUse">
<stop stop-color="#01BEAF"/>
<stop offset="1" stop-color="#005851"/>
</linearGradient>
</defs>
</svg>
