<svg width="191" height="92" viewBox="0 0 191 92" fill="none" xmlns="http://www.w3.org/2000/svg">
<path d="M72.5562 39V11.8896H89.9843V16.5371H77.6684V23.0049H88.8999V27.6524H77.6684V34.3525H90.2167V39H72.5562ZM91.0575 39V11.8896H95.9374V39H91.0575ZM106.999 39.5422C105.089 39.5422 103.398 39.142 101.926 38.3416C100.48 37.5154 99.344 36.3664 98.5177 34.8947C97.7173 33.3972 97.3171 31.6415 97.3171 29.6275V29.1628C97.3171 27.1489 97.7173 25.4061 98.5177 23.9344C99.3181 22.4368 100.441 21.2879 101.887 20.4875C103.333 19.6612 105.011 19.2481 106.922 19.2481C108.807 19.2481 110.446 19.6741 111.841 20.5262C113.235 21.3524 114.319 22.5143 115.094 24.0118C115.868 25.4835 116.256 27.2005 116.256 29.1628V30.8281H102.274C102.326 32.1449 102.817 33.2164 103.746 34.0427C104.676 34.8689 105.812 35.282 107.154 35.282C108.523 35.282 109.53 34.9851 110.175 34.3912C110.821 33.7974 111.311 33.139 111.647 32.416L115.636 34.5074C115.275 35.1787 114.745 35.9146 114.048 36.715C113.377 37.4896 112.473 38.1609 111.337 38.7289C110.201 39.2711 108.755 39.5422 106.999 39.5422ZM102.313 27.1876H111.298C111.195 26.0774 110.743 25.1866 109.943 24.5153C109.168 23.844 108.148 23.5083 106.883 23.5083C105.566 23.5083 104.521 23.844 103.746 24.5153C102.972 25.1866 102.494 26.0774 102.313 27.1876ZM126.525 39.5422C124.666 39.5422 122.974 39.1549 121.451 38.3803C119.954 37.6058 118.766 36.4826 117.888 35.0109C117.01 33.5392 116.571 31.7576 116.571 29.6663V29.1241C116.571 27.0327 117.01 25.2511 117.888 23.7794C118.766 22.3077 119.954 21.1846 121.451 20.41C122.974 19.6354 124.666 19.2481 126.525 19.2481C128.358 19.2481 129.933 19.5709 131.25 20.2164C132.566 20.8618 133.625 21.7526 134.425 22.8887C135.252 23.9989 135.794 25.2641 136.052 26.6841L131.327 27.6911C131.224 26.9165 130.991 26.2194 130.63 25.5997C130.268 24.98 129.752 24.4895 129.081 24.128C128.435 23.7665 127.622 23.5858 126.641 23.5858C125.66 23.5858 124.769 23.8053 123.969 24.2442C123.194 24.6573 122.574 25.2899 122.11 26.1419C121.671 26.9681 121.451 27.988 121.451 29.2015V29.5888C121.451 30.8023 121.671 31.8351 122.11 32.6871C122.574 33.5134 123.194 34.1459 123.969 34.5849C124.769 34.998 125.66 35.2045 126.641 35.2045C128.113 35.2045 129.223 34.8302 129.972 34.0814C130.746 33.3068 131.237 32.2999 131.443 31.0605L136.168 32.1837C135.833 33.5521 135.252 34.8043 134.425 35.9404C133.625 37.0506 132.566 37.9285 131.25 38.574C129.933 39.2195 128.358 39.5422 126.525 39.5422ZM143.811 39C142.546 39 141.513 38.6127 140.713 37.8381C139.938 37.0377 139.551 35.9791 139.551 34.6623V23.8182H134.748V19.7903H139.551V13.826H144.431V19.7903H149.698V23.8182H144.431V33.8103C144.431 34.5849 144.792 34.9722 145.515 34.9722H149.233V39H143.811ZM151.017 39V19.7903H155.819V21.9592H156.516C156.8 21.1846 157.265 20.6166 157.91 20.2551C158.582 19.8936 159.356 19.7129 160.234 19.7129H162.558V24.0505H160.157C158.917 24.0505 157.898 24.3862 157.097 25.0575C156.297 25.703 155.896 26.7099 155.896 28.0784V39H151.017ZM171.733 39.5422C169.822 39.5422 168.105 39.1549 166.582 38.3803C165.059 37.6058 163.858 36.4826 162.98 35.0109C162.102 33.5392 161.664 31.7706 161.664 29.705V29.0853C161.664 27.0198 162.102 25.2511 162.98 23.7794C163.858 22.3077 165.059 21.1846 166.582 20.41C168.105 19.6354 169.822 19.2481 171.733 19.2481C173.644 19.2481 175.361 19.6354 176.884 20.41C178.407 21.1846 179.608 22.3077 180.486 23.7794C181.364 25.2511 181.803 27.0198 181.803 29.0853V29.705C181.803 31.7706 181.364 33.5392 180.486 35.0109C179.608 36.4826 178.407 37.6058 176.884 38.3803C175.361 39.1549 173.644 39.5422 171.733 39.5422ZM171.733 35.2045C173.231 35.2045 174.47 34.7269 175.451 33.7716C176.432 32.7904 176.923 31.3962 176.923 29.5888V29.2015C176.923 27.3942 176.432 26.0128 175.451 25.0575C174.496 24.0764 173.256 23.5858 171.733 23.5858C170.236 23.5858 168.996 24.0764 168.015 25.0575C167.034 26.0128 166.543 27.3942 166.543 29.2015V29.5888C166.543 31.3962 167.034 32.7904 168.015 33.7716C168.996 34.7269 170.236 35.2045 171.733 35.2045ZM72.5562 74V46.8896H82.0448L86.7311 70.5144H87.4282L92.1144 46.8896H101.603V74H96.6457V50.6463H95.9486L91.3011 74H82.8581L78.2106 50.6463H77.5135V74H72.5562ZM109.73 74.5422C108.361 74.5422 107.135 74.3098 106.051 73.8451C104.966 73.3545 104.101 72.6574 103.456 71.7537C102.836 70.8242 102.526 69.7011 102.526 68.3843C102.526 67.0675 102.836 65.9702 103.456 65.0923C104.101 64.1886 104.979 63.5173 106.089 63.0784C107.225 62.6136 108.516 62.3813 109.962 62.3813H115.229V61.2968C115.229 60.3932 114.945 59.6573 114.377 59.0893C113.809 58.4954 112.906 58.1985 111.666 58.1985C110.453 58.1985 109.549 58.4825 108.955 59.0505C108.361 59.5928 107.974 60.3028 107.793 61.1806L103.301 59.6702C103.611 58.6891 104.101 57.7983 104.772 56.9979C105.47 56.1717 106.386 55.5133 107.522 55.0227C108.684 54.5063 110.091 54.2481 111.744 54.2481C114.274 54.2481 116.275 54.8807 117.747 56.1459C119.218 57.411 119.954 59.2442 119.954 61.6454V68.8103C119.954 69.5849 120.316 69.9722 121.039 69.9722H122.588V74H119.335C118.379 74 117.592 73.7676 116.972 73.3029C116.353 72.8381 116.043 72.2185 116.043 71.4439V71.4051H115.307C115.204 71.715 114.971 72.1281 114.61 72.6445C114.248 73.135 113.68 73.574 112.906 73.9613C112.131 74.3486 111.072 74.5422 109.73 74.5422ZM110.582 70.5918C111.95 70.5918 113.061 70.2175 113.913 69.4687C114.79 68.6941 115.229 67.6742 115.229 66.4091V66.0218H110.311C109.407 66.0218 108.697 66.2154 108.181 66.6027C107.664 66.99 107.406 67.5322 107.406 68.2294C107.406 68.9265 107.677 69.4945 108.219 69.9334C108.762 70.3724 109.549 70.5918 110.582 70.5918ZM123.057 74V46.8896H127.937V74H123.057ZM130.247 74V46.8896H135.126V74H130.247ZM140.495 74.5422C139.463 74.5422 138.585 74.2066 137.862 73.5353C137.165 72.8381 136.816 71.9474 136.816 70.8629C136.816 69.7785 137.165 68.9007 137.862 68.2294C138.585 67.5322 139.463 67.1837 140.495 67.1837C141.554 67.1837 142.432 67.5322 143.129 68.2294C143.826 68.9007 144.175 69.7785 144.175 70.8629C144.175 71.9474 143.826 72.8381 143.129 73.5353C142.432 74.2066 141.554 74.5422 140.495 74.5422Z" fill="white"/>
<path fill-rule="evenodd" clip-rule="evenodd" d="M25.7282 77.9312C25.0839 80.3359 26.1787 82.8702 28.3705 84.0497C30.5642 85.2324 33.2823 84.7486 34.9358 82.8839C43.8525 72.8284 58.2436 56.5995 64.3474 49.7161C65.5825 48.3232 66.0085 46.3911 65.4711 44.6094C64.9369 42.8259 63.5159 41.447 61.7182 40.9653C57.2045 39.7559 50.0267 37.8326 45.1628 36.5293C43.7309 36.1456 42.8801 34.6721 43.2638 33.2402L48.6604 13.0998C49.3047 10.6951 48.2099 8.16078 46.0181 6.98128C43.8244 5.79849 41.1063 6.28239 39.4528 8.14701C30.5361 18.2025 16.1451 34.4315 10.0412 41.3149C8.8061 42.7077 8.38013 44.6399 8.91756 46.4215C9.45171 48.205 10.8728 49.5839 12.6705 50.0656C17.1841 51.275 24.362 53.1983 29.2258 54.5016C30.6578 54.8853 31.5085 56.3588 31.1248 57.7908L25.7282 77.9312ZM43.4722 11.7096L38.0756 31.85C36.9239 36.1484 39.4742 40.5657 43.7726 41.7175L60.328 46.1535L30.9164 79.3213L36.313 59.1809C37.4647 54.8825 34.9144 50.4652 30.616 49.3135L14.0606 44.8775L43.4722 11.7096Z" fill="#0890FF"/>
</svg>
