<svg width="61" height="60" viewBox="0 0 61 60" fill="none" xmlns="http://www.w3.org/2000/svg">
<g clip-path="url(#clip0_401_2642)">
<path d="M32.2879 0C32.6502 0.253711 33.0948 0.261558 33.495 0.392336C35.8484 1.19433 37.823 2.83684 39.04 5.0049C42.7803 11.4811 46.5389 17.952 50.2464 24.4399C53.6192 30.3407 50.5655 37.6721 44.0724 39.3906C43.2308 39.6161 42.3634 39.7313 41.4921 39.7332C33.9566 39.7332 26.4212 39.7489 18.887 39.7332C11.0481 39.7123 6.20147 31.2234 10.1366 24.4321C13.8411 18.037 17.5348 11.6367 21.2175 5.23115C22.7554 2.56065 24.9408 0.784673 27.9722 0.116393C28.0232 0.105931 28.0611 0.0405414 28.103 0H32.2879ZM36.6612 33.7409C41.2384 33.7527 44.2725 29.1767 42.1617 25.2769C40.1699 21.5968 38.0853 17.9533 35.8778 14.4027C33.2374 10.1497 27.0254 10.2674 24.4582 14.5661C22.3657 18.0658 20.3504 21.6112 18.3325 25.1592C17.7332 26.2049 17.4663 27.4082 17.5675 28.6092C17.7662 31.0456 19.0753 32.7091 21.3156 33.5565C23.6304 34.4327 25.7621 33.975 27.593 32.2814C28.1344 31.7792 28.613 31.209 29.1375 30.6872C29.8267 30.0007 30.6323 30.0007 31.3215 30.6872C31.7844 31.1476 32.2121 31.6445 32.6816 32.097C33.2038 32.6198 33.8242 33.0342 34.5072 33.3164C35.1902 33.5985 35.9222 33.7428 36.6612 33.7409Z" fill="#0045E5"/>
<path d="M0 56.0779C0.261558 55.8988 0.245864 55.5849 0.338717 55.3299C1.20316 52.9654 2.08069 50.6022 2.89021 48.2168C3.15177 47.4322 3.70235 47.3354 4.35101 47.3354C4.99967 47.3354 5.51233 47.4727 5.78042 48.2011C6.69587 50.6859 7.5394 53.1995 8.36069 55.7196C8.41431 55.8844 8.46531 56.0505 8.51108 56.2179C8.60524 56.5684 8.91388 56.9489 8.30707 57.1713C7.72772 57.3831 7.17191 57.2589 6.96266 56.7606C6.75126 56.2367 6.56919 55.7014 6.41731 55.1573C6.31923 54.8251 6.17799 54.6577 5.78958 54.6681C4.78868 54.6987 3.78605 54.6987 2.78166 54.6681C2.44295 54.659 2.32132 54.8081 2.23893 55.0827C2.09508 55.5614 1.94468 56.0387 1.79167 56.5147C1.54711 57.2759 0.932453 57.4943 0.245864 57.0627C0.160159 57.0008 0.0780697 56.9339 0 56.8626L0 56.0779ZM4.4164 48.9021L4.27647 48.893C3.80653 50.2653 3.3366 51.6371 2.86667 53.0086C2.76859 53.2963 2.91767 53.3342 3.15569 53.3329C4.04499 53.3264 4.93559 53.3329 5.8942 53.3329L4.4164 48.9021Z" fill="#0045E5"/>
<path d="M54.5112 60C54.2183 59.5175 54.2811 59.1565 54.7388 58.7589C55.326 58.2463 55.7706 57.5819 56.2009 56.928C56.3526 56.6979 56.4062 56.5357 56.1002 56.3657C55.6739 56.1368 55.496 55.6948 55.2959 55.2855C54.5543 53.7401 53.9317 52.1404 53.4336 50.5003C53.3316 50.172 53.1315 49.8254 53.6206 49.6306C54.0744 49.4488 54.5282 49.403 54.8617 49.8346C55.0032 50.0522 55.11 50.2904 55.1782 50.5408C55.7406 52.1324 56.2911 53.7266 57.0091 55.3796C57.4198 54.6734 57.6238 53.9829 57.8356 53.3042C58.1469 52.3115 58.4215 51.3059 58.6844 50.2962C58.8871 49.526 59.3971 49.284 60.1229 49.6567L60.3937 49.8006V50.9776C60.1805 51.0809 60.2093 51.3072 60.1609 51.4811C59.2794 54.5792 58.1887 57.5715 55.9498 59.9974L54.5112 60Z" fill="#0045E5"/>
<path d="M37.5413 52.2932C37.5413 51.009 37.5556 49.7247 37.5334 48.4405C37.5256 47.9174 37.7466 47.6218 38.2396 47.5041C39.6572 47.1667 41.0867 47.0921 42.4978 47.4884C43.9599 47.8991 44.7929 49.2042 44.6543 50.733C44.5 52.4331 43.4433 53.5108 41.6699 53.7161C41.0858 53.7782 40.4975 53.7926 39.911 53.7592C39.4349 53.7357 39.2453 53.8639 39.2767 54.37C39.3185 55.0644 39.2505 55.7654 39.2989 56.4624C39.3368 56.9934 39.1511 57.2275 38.6306 57.2209C38.1311 57.2131 37.6184 57.1896 37.5635 56.5396C37.5164 55.9772 37.5426 55.4097 37.5413 54.8395C37.5334 53.9907 37.5413 53.142 37.5413 52.2932ZM39.2558 50.5852C39.2558 51.0626 39.2558 51.5399 39.2558 52.0173C39.2558 52.2213 39.2479 52.4096 39.5448 52.4096C40.2601 52.4018 40.9833 52.4658 41.6778 52.2487C42.5187 51.9872 42.9594 51.3333 42.9346 50.4178C42.9097 49.5024 42.4795 48.9897 41.5862 48.7517C41.0291 48.6026 40.4694 48.6471 39.9057 48.6576C39.3826 48.6654 39.1825 48.8864 39.2518 49.4161C39.276 49.8054 39.2773 50.1958 39.2558 50.5852Z" fill="#0045E5"/>
<path d="M51.9741 53.8638C51.9741 54.451 51.9544 55.0408 51.9741 55.6267C51.9937 56.2126 51.7269 56.5906 51.2325 56.8168C49.7822 57.4772 48.2939 57.5792 46.8018 56.9881C45.8562 56.6128 45.4482 55.8817 45.4874 54.808C45.5214 53.8926 45.9883 53.2636 46.926 52.9261C47.7551 52.628 48.634 52.6332 49.4958 52.5247C49.7757 52.4893 50.2282 52.6554 50.3014 52.2134C50.3851 51.7151 50.2125 51.2496 49.726 51.0024C49.1955 50.7336 48.5863 50.664 48.0089 50.8062C47.5864 50.9043 47.1692 51.0233 46.7521 51.1423C46.5389 51.2038 46.3283 51.4261 46.123 51.1306C46.0203 51.0026 45.9592 50.8463 45.948 50.6827C45.9368 50.519 45.9759 50.3558 46.0602 50.2151C46.1345 50.1086 46.2308 50.0194 46.3427 49.9535C47.4766 49.199 49.9954 49.2761 51.0835 50.0843C51.7373 50.5747 51.9309 51.2731 51.9571 52.0369C51.9767 52.645 51.9571 53.2557 51.9571 53.8677L51.9741 53.8638ZM50.3276 54.7296C50.3276 54.4916 50.3276 54.2522 50.3276 54.0129C50.3341 53.8089 50.2949 53.6847 50.0425 53.7082C49.3075 53.7762 48.5647 53.7971 47.8506 54.0011C47.385 54.1319 47.1196 54.4484 47.1366 54.9598C47.1536 55.4711 47.4217 55.7719 47.8728 55.9223C48.2886 56.0566 48.7291 56.0968 49.1623 56.04C50.2805 55.9079 50.3276 55.853 50.3276 54.7296Z" fill="#0045E5"/>
<path d="M34.9793 53.8299C34.9793 54.417 34.9558 55.0069 34.9793 55.5914C35.0028 56.176 34.7792 56.5644 34.2757 56.7998C32.8071 57.4864 31.2992 57.5845 29.79 56.9764C28.8641 56.6024 28.4561 55.8635 28.4914 54.8473C28.5241 53.8966 29.004 53.2623 29.9665 52.9209C30.7761 52.6332 31.6327 52.6398 32.4697 52.5286C32.7626 52.4894 33.2439 52.6999 33.3145 52.186C33.3851 51.672 33.2138 51.2313 32.7142 50.9906C32.2613 50.7723 31.7538 50.6936 31.256 50.7644C30.7596 50.8252 30.273 50.9496 29.8083 51.1345C29.5467 51.2391 29.2852 51.4235 29.089 51.0443C28.9138 50.7042 28.8942 50.376 29.1871 50.0883C29.4277 49.8516 29.7429 49.7522 30.0568 49.6645C31.103 49.3716 32.1492 49.3141 33.2033 49.6462C34.3594 50.0111 34.8943 50.6728 34.961 51.8695C34.9976 52.5234 34.9675 53.1773 34.9675 53.8312L34.9793 53.8299ZM33.3328 54.7453C33.3328 54.4837 33.3328 54.2222 33.3328 53.9606C33.3328 53.7697 33.2661 53.6899 33.0634 53.7082C32.3075 53.7775 31.5437 53.7906 30.8127 54.0208C30.609 54.0698 30.4296 54.1901 30.307 54.3599C30.1844 54.5298 30.1267 54.738 30.1444 54.9467C30.1389 55.1555 30.201 55.3604 30.3214 55.531C30.4418 55.7016 30.6141 55.8288 30.8127 55.8935C31.2439 56.0478 31.7054 56.098 32.1597 56.04C33.2831 55.9145 33.3341 55.8556 33.3328 54.744V54.7453Z" fill="#0045E5"/>
<path d="M12.9354 49.4148C13.5367 49.4169 14.1343 49.5081 14.7088 49.6855C14.9827 49.763 15.229 49.9167 15.4189 50.1288C15.6805 50.4335 15.6805 50.7578 15.4778 51.0926C15.2502 51.4771 14.9952 51.2117 14.7559 51.1175C14.0392 50.835 13.3173 50.6205 12.5326 50.8298C12.1076 50.9436 11.748 51.1201 11.7349 51.6328C11.727 52.1166 12.0658 52.3023 12.4633 52.4253C13.248 52.6685 14.0732 52.7888 14.8095 53.1877C15.5942 53.6101 15.9865 54.2431 15.9499 55.1494C15.9159 56.0256 15.4804 56.6089 14.7166 56.9908C14.243 57.2066 13.7293 57.3206 13.2088 57.3255C12.3129 57.3687 11.4249 57.3059 10.6141 56.8613C10.2466 56.6599 10.0008 56.38 10.0452 55.9236C10.0975 55.3796 10.3813 55.2109 10.8561 55.4737C11.6211 55.8988 12.4254 56.1015 13.3003 55.9655C13.7737 55.8922 14.2001 55.7484 14.2733 55.1808C14.3544 54.5491 13.9594 54.2784 13.4442 54.1136C12.6595 53.8612 11.829 53.7605 11.098 53.3512C10.8165 53.1977 10.5769 52.9776 10.4001 52.7101C10.2234 52.4426 10.1149 52.1358 10.0842 51.8167C10.0535 51.4976 10.1015 51.1757 10.2239 50.8794C10.3464 50.5831 10.5397 50.3214 10.7867 50.117C11.0856 49.8629 11.4406 49.6836 11.8225 49.5939C12.2397 49.4854 12.6673 49.386 12.9354 49.4148Z" fill="#0045E5"/>
<path d="M17.2511 51.7008C17.2511 50.5237 17.2786 49.3467 17.238 48.1789C17.2223 47.7133 17.3544 47.4884 17.8161 47.4766C18.2777 47.4648 18.7721 47.4478 18.8793 48.0612C18.9158 48.3627 18.928 48.6666 18.9159 48.9701C18.9159 49.8149 18.9159 49.8149 19.7908 49.8149C20.1832 49.8149 20.5755 49.8437 20.9679 49.8084C21.4282 49.7665 21.5328 50.0359 21.5485 50.3956C21.5642 50.7801 21.4583 51.1044 20.9992 51.1227C20.4761 51.141 19.953 51.1541 19.4299 51.1227C19.0376 51.1005 18.8976 51.2273 18.9068 51.6327C18.9329 52.6097 18.9146 53.5944 18.9159 54.5674C18.9159 55.7444 19.4103 56.1368 20.6004 55.9328C20.9365 55.8739 21.3589 55.509 21.5341 56.1564C21.6557 56.6076 21.3615 57.0601 20.8005 57.2157C20.1246 57.399 19.4107 57.3881 18.7407 57.1843C17.752 56.8979 17.276 56.2689 17.259 55.2226C17.2393 54.0456 17.259 52.8686 17.259 51.6994L17.2511 51.7008Z" fill="#0045E5"/>
<path d="M22.8654 53.7409C22.8654 52.8922 22.8746 52.0408 22.8654 51.1973C22.8504 51.0011 22.8904 50.8046 22.9809 50.6299C23.0715 50.4552 23.209 50.3093 23.3781 50.2086C24.4518 49.5258 25.746 49.2797 26.9954 49.5207C27.1369 49.5351 27.2718 49.5881 27.3852 49.6739C27.4987 49.7597 27.5864 49.8749 27.6388 50.0072C27.8167 50.4636 27.5303 50.8755 27.053 50.8272C26.3998 50.7619 25.7403 50.8219 25.1096 51.0037C24.6806 51.1227 24.4845 51.3333 24.4962 51.8302C24.5355 53.3996 24.4818 54.9611 24.5263 56.5252C24.542 57.0706 24.3066 57.2223 23.858 57.2144C23.4095 57.2066 22.8864 57.1896 22.8693 56.5461C22.8458 55.6111 22.8693 54.676 22.8693 53.7422L22.8654 53.7409Z" fill="#0045E5"/>
<path d="M36.6613 33.7409C35.921 33.7419 35.1878 33.5962 34.504 33.3123C33.8203 33.0283 33.1996 32.6118 32.6778 32.0866C32.2083 31.6341 31.7806 31.1371 31.3177 30.6768C30.6285 29.9954 29.8229 29.9954 29.1337 30.6768C28.6106 31.1999 28.1306 31.7688 27.5892 32.271C25.7583 33.9646 23.6305 34.4223 21.3118 33.5461C19.0715 32.6986 17.7624 31.0351 17.5637 28.5987C17.4625 27.3977 17.7294 26.1944 18.3287 25.1488C20.3466 21.606 22.3646 18.0606 24.4544 14.5557C27.0216 10.257 33.2336 10.1393 35.874 14.3922C38.0816 17.9481 40.1662 21.5851 42.1579 25.2665C44.2726 29.1715 41.2412 33.7475 36.6613 33.7409ZM36.9503 30.8638C39.2638 30.8638 40.6841 28.4575 39.4351 26.2591C37.5083 22.8771 35.5641 19.5109 33.6024 16.1604C32.054 13.5082 28.4065 13.5082 26.845 16.1525C26.1401 17.3478 25.4549 18.5549 24.763 19.7581C23.4552 22.0336 22.1161 24.2922 20.8514 26.5926C20.0275 28.09 20.4016 29.6384 21.6845 30.5251C22.9674 31.4118 24.6375 31.2091 25.7635 30.0203C26.182 29.5769 26.6109 29.1428 27.036 28.7125C28.8486 26.8554 31.5439 26.8345 33.3683 28.6667C33.7515 29.0512 34.1163 29.4514 34.4982 29.8437C35.1142 30.4715 35.8335 30.8717 36.9503 30.852V30.8638Z" fill="#EAE702"/>
<path d="M36.9502 30.852C35.8347 30.8716 35.1193 30.4662 34.4981 29.8385C34.1163 29.4461 33.7514 29.046 33.3682 28.6615C31.5373 26.8306 28.8485 26.8502 27.0359 28.7072C26.6109 29.1427 26.1819 29.5769 25.7634 30.015C24.6374 31.2038 22.9752 31.4118 21.6844 30.5198C20.3936 29.6279 20.0275 28.0847 20.8514 26.5873C22.116 24.2869 23.4552 22.0284 24.763 19.7528C25.4548 18.5497 26.1401 17.3426 26.845 16.1473C28.4065 13.5029 32.0539 13.5029 33.6023 16.1551C35.5605 19.5091 37.503 22.8732 39.4298 26.2473C40.684 28.4457 39.2637 30.8533 36.9502 30.852Z" fill="#0045E5"/>
</g>
<defs>
<clipPath id="clip0_401_2642">
<rect width="60.3936" height="60" fill="white"/>
</clipPath>
</defs>
</svg>
