<svg width="58" height="17" viewBox="0 0 58 17" fill="none" xmlns="http://www.w3.org/2000/svg">
<path fill-rule="evenodd" clip-rule="evenodd" d="M5.35192 12.6905L7.72753 15.6324H1.84596L5.35192 12.6905ZM4.60489 11.7818L0.00402812 15.6414L0.00214167 6.14923L4.60489 11.7818ZM15.675 2.2238C15.675 2.2238 14.6649 1.74566 13.4916 1.81549C12.1501 1.89449 11.0279 2.40895 10.3827 3.08777C9.97674 3.51424 9.52796 4.0345 9.30253 4.5995C8.97561 5.41686 8.90581 6.49688 8.90581 6.49688C8.90581 6.49688 8.43665 6.09868 7.84883 4.93835C7.16537 3.58875 6.97842 2.7712 6.8858 1.83852C6.80336 1.02003 6.93277 0.210724 6.93277 0.210724H15.675V2.2238ZM15.675 4.91476V10.8999C15.675 10.8999 15.1315 11.1086 14.6882 11.1086C14.2448 11.1086 13.4899 11.0429 12.6131 10.5608C11.7426 10.0827 11.2608 9.50422 10.8873 8.98004C10.5085 8.44686 10.1958 7.70775 10.1028 7.17514C10.0281 6.74905 9.9475 5.68625 10.3827 4.82247C10.6189 4.35369 11.2527 3.55018 12.4731 3.5045C13.4678 3.46631 14.0194 3.72785 14.525 4.00529C15.4871 4.53435 15.675 4.91476 15.675 4.91476ZM6.15574 10.4796L7.73262 9.16519C7.23007 8.52324 7.09727 8.28137 6.53548 7.45259C5.9603 6.60434 5.4785 5.67109 5.0665 4.5761C4.62055 3.38993 4.51283 2.72402 4.56207 1.83852C4.62375 0.711886 4.87993 0.210724 4.87993 0.210724H-0.00012207L0.00214167 2.84084C0.00214167 2.84084 3.73769 7.52223 6.15574 10.4796ZM10.6613 15.6281H15.675V11.9724C15.675 11.9724 14.4314 12.5428 13.6231 12.5889C13.1418 12.617 12.6747 12.6355 11.9211 12.435C11.0833 12.2124 10.6074 11.9954 9.83092 11.355C9.20726 10.8413 8.49418 10.0827 8.49418 10.0827L6.90806 11.4052C7.64396 12.3053 8.18745 12.9605 8.35383 13.1369C9.06917 13.8928 9.37232 14.1706 9.85412 14.44C10.3357 14.71 11.9449 14.6954 11.9449 14.6954L10.6613 15.6281Z" fill="#E94E0F"/>
<path fill-rule="evenodd" clip-rule="evenodd" d="M53.5928 12.3763C53.5928 13.4355 53.7356 15.1766 52.5494 15.6004V15.671H57.0547V15.6004C55.8692 15.1534 56.0115 13.4355 56.0115 12.3763V3.50494C56.0115 2.44626 55.8692 0.704832 57.0547 0.257773V0.187195H52.5494V0.257773C53.7589 0.704832 53.5928 2.42267 53.5928 3.50494V12.3763ZM37.073 3.50494L45.2064 13.7414C46.2495 15.0824 46.985 15.8593 48.6685 16.4238V3.22263C48.6685 1.90504 48.6685 0.963557 49.9018 0.257773V0.187195H45.728V0.257773C46.985 0.963557 46.9608 1.90504 46.9608 3.22263V12.1411L38.2826 1.26946L37.9502 0.798811C37.7846 0.610665 37.6899 0.493097 37.595 0.210783V0.187195H34.1324V0.257773C35.3656 0.963557 35.3656 1.90504 35.3656 3.22263V12.6122C35.3656 13.9296 35.3656 14.8707 34.1092 15.6004V15.671H38.3064V15.6004C37.0494 14.8707 37.073 13.9296 37.073 12.6122V3.50494ZM23.8152 6.42317V1.81106L25.4036 1.64594C26.8266 1.50478 28.3439 2.3521 28.3439 3.97596C28.3439 5.90554 26.1386 6.42317 24.5977 6.42317H23.8152ZM23.8152 13.7884V7.9759L25.4747 7.88192C27.5615 7.76416 29.7904 8.75282 29.7904 11.0353C29.7904 13.2708 27.8228 14.1649 25.8779 13.9767L23.8152 13.7884ZM21.3962 12.3529C21.3962 13.4355 21.5387 15.1534 20.3527 15.6004V15.671H24.2653C26.0437 15.671 27.9175 15.7418 29.577 14.9416C31.1658 14.1885 32.4227 12.6352 32.4227 10.8232C32.4227 8.5175 30.6913 7.10537 28.5572 6.65794C29.909 6.06991 30.9283 5.17579 30.9283 3.59911C30.9283 1.50478 29.103 0.187195 25.9731 0.187195H20.3527V0.257773C21.5626 0.704832 21.3962 2.42267 21.3962 3.48135V12.3529Z" fill="#005B6A"/>
</svg>
