<svg width="25" height="25" viewBox="0 0 16 16" fill="none" xmlns="http://www.w3.org/2000/svg">
<path d="M12.9738 3.99C11.6781 3.3425 9.95812 3 8 3C6.04188 3 4.32187 3.3425 3.02625 3.99C1.73062 4.6375 1 5.54875 1 6.5V9.5C1 10.4513 1.73875 11.3656 3.02625 12.01C4.31375 12.6544 6.04188 13 8 13C9.95812 13 11.6781 12.6575 12.9738 12.01C14.2694 11.3625 15 10.4513 15 9.5V6.5C15 5.54875 14.2613 4.63438 12.9738 3.99ZM7.5 9.99V11.99C6.3125 11.9512 5.3125 11.7763 4.5 11.5219V9.56563C5.47946 9.82659 6.48661 9.96948 7.5 9.99125V9.99ZM8.5 9.99C9.51339 9.96823 10.5205 9.82534 11.5 9.56437V11.5212C10.6875 11.7756 9.6875 11.9506 8.5 11.9894V9.99ZM2 9.5V8.34562C2.3147 8.60676 2.65918 8.82977 3.02625 9.01C3.17812 9.08563 3.33875 9.15687 3.5 9.22437V11.125C2.51063 10.635 2 10.0181 2 9.5ZM12.5 11.125V9.22437C12.6631 9.15687 12.8219 9.08563 12.9738 9.01C13.3408 8.82977 13.6853 8.60676 14 8.34562V9.5C14 10.0181 13.4894 10.635 12.5 11.125Z" fill="#266DB0"/>
</svg>
