<svg width="47" height="60" viewBox="0 0 47 60" fill="none" xmlns="http://www.w3.org/2000/svg">
<path fill-rule="evenodd" clip-rule="evenodd" d="M32.9965 7.91647L37.5538 21.0839C37.8161 21.8519 37.8409 22.7782 37.5538 23.512L33.4384 31.7451L28.9035 26.1126L27.885 23.0665C27.7265 22.4683 27.7499 21.8364 27.9524 21.2516L28.7121 19.588C28.8775 19.2253 29.2178 19.2052 29.3407 19.5065L31.4486 25.5573C31.8669 25.334 32.1576 24.2682 31.8917 23.46L29.8429 17.7672C29.4884 16.5266 29.9055 15.2635 30.7161 13.9862C30.9016 13.6766 31.1698 13.6872 31.3068 13.972L33.709 20.8759C34.2159 20.701 34.4096 19.6672 34.0634 18.638L31.7712 12.0212C31.6362 11.1811 31.7453 10.3199 32.0855 9.53995C32.0855 9.53995 32.9811 7.92829 32.9965 7.91647ZM35.2509 30.9996C36.3309 31.2642 38.1139 31.2666 40.0682 31.204C40.699 31.3536 41.2459 31.7447 41.5912 32.2934C43.3045 32.3123 44.0359 33.0661 43.8575 34.5041C43.347 33.2209 41.7673 33.0732 41.0323 34.0197C41.5239 34.4379 42.0875 34.458 42.7243 34.0669C42.7964 34.7416 41.9882 35.1433 40.243 35.2544C39.1465 35.4151 35.5723 38.3714 33.3663 40.3434C31.1705 41.9855 28.649 43.1393 25.9709 43.7274L8.13866 49.1532C7.76529 49.2548 7.55733 48.8519 7.77001 48.7172C8.69991 47.8972 10.1331 47.0902 11.8098 46.2879C11.7224 46.0598 11.2604 46.0078 10.5538 46.0693L4.30448 48.6805C4.50534 47.9279 5.39152 47.063 7.14024 46.1567L16.7109 40.3978C16.9732 40.2583 17.0371 40.1118 16.8291 39.9547C15.9323 39.9901 12.488 36.2316 9.69242 33.4383C9.21533 32.9561 8.91726 32.3254 8.8476 31.6506V29.616C8.85824 29.304 9.00948 29.2958 9.29778 29.5793L16.2182 36.2741C16.9626 36.9417 16.9094 35.5652 16.3754 35.0665L7.94607 26.5545C7.54507 26.0645 7.28453 25.4748 7.19223 24.8483V22.6825C7.19223 22.419 7.33047 22.3623 7.62941 22.6447L16.2773 31.0338C16.9201 31.5833 16.8456 30.0886 16.2702 29.4718L6.69479 20.0724C6.05438 19.354 5.67982 18.6073 5.54867 17.8346V15.4336C5.54867 15.1441 5.74244 15.1146 6.10873 15.4608L16.2702 25.367C16.8362 25.9165 17.1942 24.8153 16.2702 23.9208L4.96261 12.6227C4.49707 12.1158 3.96773 11.2969 3.91574 10.614L3.94646 8.10671C3.96537 7.74397 4.2773 7.68016 4.55024 7.93302L16.2478 19.3139C16.9673 20.0724 16.9874 18.9334 16.4652 18.1323L3.14772 4.94011C2.13984 3.70419 2.38206 1.79832 2.45296 0.225651C2.46359 -0.0106624 2.63728 -0.0791933 2.84878 0.113402L19.7688 16.6341L33.9477 34.4545C34.1213 34.6565 34.3116 34.731 34.5219 34.6317L34.5077 33.8412L33.8118 32.6538L35.9126 32.1894L35.2533 30.9972L35.2509 30.9996ZM39.4065 32.3088L40.516 32.4009C40.145 32.8924 39.657 32.922 39.0319 32.4151L39.1773 32.1043L39.4065 32.3088Z" fill="#F5303E"/>
<path fill-rule="evenodd" clip-rule="evenodd" d="M11.4766 43.5478C6.49864 43.0622 -0.0425131 43.347 2.32869e-05 52.1863C0.11818 57.2103 2.7259 59.8062 8.15992 60C10.3884 60 12.5152 59.5722 14.5168 58.6223L14.4884 51.5624C13.7546 50.499 12.6782 50.2768 11.284 50.8251L6.70896 52.6459V53.0323H11.1989L11.284 56.3785C7.07879 57.6274 3.69478 56.5108 3.71369 52.0693C3.65433 50.9063 3.8562 49.7447 4.30447 48.6699C4.50888 47.9196 5.39506 47.0571 7.14023 46.1532L11.4742 43.5443L11.4766 43.5478Z" fill="#003563"/>
<path fill-rule="evenodd" clip-rule="evenodd" d="M32.8665 43.2347H35.1233C35.4636 43.2347 35.7933 43.4368 36.0591 43.7853L43.1875 53.525V43.4722C43.1844 43.4421 43.1874 43.4118 43.1964 43.3829C43.2053 43.354 43.22 43.3273 43.2395 43.3042C43.259 43.2812 43.283 43.2623 43.31 43.2487C43.337 43.2351 43.3665 43.2272 43.3966 43.2253L45.5235 43.2323C46.2194 43.2323 46.8456 43.9023 46.8574 44.5049L46.8645 59.2745C46.8645 59.525 46.7464 59.7164 46.4451 59.7211L43.9413 59.7282C43.4309 59.7282 43.0504 59.1906 42.7007 58.7605L36.2765 49.9236L36.2623 59.3631C36.2623 59.5852 36.1548 59.7341 35.8984 59.7353L33.8401 59.7282C33.2068 59.7211 32.5463 58.9425 32.5404 58.4486V43.5608C32.5404 43.3611 32.6267 43.2359 32.863 43.2335L32.8665 43.2347Z" fill="#003563"/>
<path fill-rule="evenodd" clip-rule="evenodd" d="M22.8692 46.1142L28.5349 44.8712C30.3368 46.2099 30.8082 49.3304 29.6538 51.8602C28.7026 53.59 27.2836 54.5671 25.3127 54.6593H20.5487L20.5144 59.3619C20.5321 59.6171 20.3962 59.753 20.0642 59.7436L18.1737 59.7507C17.5699 59.6703 16.8988 58.8704 16.8633 58.3032L16.8693 47.779C16.8693 47.5309 17.4518 47.1823 18.1182 47.0145L19.8114 46.6459C20.2296 46.5738 20.6514 46.6707 20.6644 46.8373L20.6916 51.6321L24.3226 51.625C25.529 51.6085 26.4931 50.7483 26.5203 49.0149C26.5203 47.2745 25.8515 46.2583 22.8822 46.4746L22.8692 46.1142Z" fill="#003563"/>
</svg>
