<svg width="80" height="62" viewBox="0 0 80 62" fill="none" xmlns="http://www.w3.org/2000/svg">
<path d="M79.7333 49.1318C79.7333 55.9321 74.1959 61.4695 67.3956 61.4695H0.266663V12.6043C0.266663 5.80401 5.80407 0.266602 12.6044 0.266602H79.7333V49.1318Z" fill="white"/>
<path d="M57.8751 36.5998H62.9754C63.1211 36.5998 63.4611 36.5512 63.6068 36.5512C64.5783 36.3569 65.4041 35.4826 65.4041 34.2682C65.4041 33.1025 64.5783 32.2281 63.6068 31.9853C63.4611 31.9367 63.1697 31.9367 62.9754 31.9367H57.8751V36.5998Z" fill="url(#paint0_linear_647_1781)"/>
<path d="M62.3925 4.39537C57.5351 4.39537 53.5521 8.32985 53.5521 13.2358V22.4162H66.0355C66.327 22.4162 66.667 22.4162 66.9099 22.4648C69.7271 22.6105 71.8158 24.0677 71.8158 26.5936C71.8158 28.5851 70.4072 30.2852 67.7842 30.6252V30.7224C70.65 30.9166 72.8359 32.5196 72.8359 34.9968C72.8359 37.6684 70.4072 39.4171 67.2013 39.4171H53.5035V57.3894H66.4727C71.3301 57.3894 75.3131 53.4549 75.3131 48.5489V4.39537H62.3925Z" fill="url(#paint1_linear_647_1781)"/>
<path d="M64.7726 27.1765C64.7726 26.0107 63.9469 25.2335 62.9754 25.0878C62.8782 25.0878 62.6354 25.0392 62.4896 25.0392H57.8751V29.3137H62.4896C62.6354 29.3137 62.9268 29.3137 62.9754 29.2651C63.9469 29.1194 64.7726 28.3422 64.7726 27.1765Z" fill="url(#paint2_linear_647_1781)"/>
<path d="M13.5273 4.39537C8.66992 4.39537 4.68687 8.32985 4.68687 13.2358V35.0454C7.16414 36.2598 9.73855 37.0369 12.313 37.0369C15.3731 37.0369 17.0246 35.1911 17.0246 32.6653V22.3677H24.6021V32.6167C24.6021 36.5998 22.1249 39.8542 13.7216 39.8542C8.62135 39.8542 4.6383 38.737 4.6383 38.737V57.3408H17.6075C22.4649 57.3408 26.4479 53.4063 26.4479 48.5003V4.39537H13.5273Z" fill="url(#paint3_linear_647_1781)"/>
<path d="M37.9599 4.39537C33.1025 4.39537 29.1195 8.32985 29.1195 13.2358V24.7964C31.3539 22.902 35.2398 21.6876 41.5058 21.9791C44.8574 22.1248 48.4518 23.0477 48.4518 23.0477V26.7879C46.6546 25.865 44.5174 25.0392 41.7487 24.8449C36.9884 24.5049 34.1226 26.8365 34.1226 30.9166C34.1226 35.0454 36.9884 37.377 41.7487 36.9884C44.5174 36.7941 46.6546 35.9197 48.4518 35.0454V38.7856C48.4518 38.7856 44.906 39.7085 41.5058 39.8542C35.2398 40.1457 31.3539 38.9313 29.1195 37.0369V57.4379H42.0887C46.946 57.4379 50.9291 53.5034 50.9291 48.5975V4.39537H37.9599Z" fill="url(#paint4_linear_647_1781)"/>
<defs>
<linearGradient id="paint0_linear_647_1781" x1="-45.4482" y1="30.9441" x2="184.94" y2="30.9441" gradientUnits="userSpaceOnUse">
<stop stop-color="#007940"/>
<stop offset="0.2285" stop-color="#00873F"/>
<stop offset="0.7433" stop-color="#40A737"/>
<stop offset="1" stop-color="#5CB531"/>
</linearGradient>
<linearGradient id="paint1_linear_647_1781" x1="0.411703" y1="30.8436" x2="79.9506" y2="30.8436" gradientUnits="userSpaceOnUse">
<stop stop-color="#007940"/>
<stop offset="0.2285" stop-color="#00873F"/>
<stop offset="0.7433" stop-color="#40A737"/>
<stop offset="1" stop-color="#5CB531"/>
</linearGradient>
<linearGradient id="paint2_linear_647_1781" x1="-49.6397" y1="30.7811" x2="201.851" y2="30.7811" gradientUnits="userSpaceOnUse">
<stop stop-color="#007940"/>
<stop offset="0.2285" stop-color="#00873F"/>
<stop offset="0.7433" stop-color="#40A737"/>
<stop offset="1" stop-color="#5CB531"/>
</linearGradient>
<linearGradient id="paint3_linear_647_1781" x1="0.406172" y1="30.8716" x2="81.1702" y2="30.8716" gradientUnits="userSpaceOnUse">
<stop stop-color="#1F286F"/>
<stop offset="0.4751" stop-color="#004E94"/>
<stop offset="0.8261" stop-color="#0066B1"/>
<stop offset="1" stop-color="#006FBC"/>
</linearGradient>
<linearGradient id="paint4_linear_647_1781" x1="28.9939" y1="30.8712" x2="50.5219" y2="30.8712" gradientUnits="userSpaceOnUse">
<stop stop-color="#6C2C2F"/>
<stop offset="0.1735" stop-color="#882730"/>
<stop offset="0.5731" stop-color="#BE1833"/>
<stop offset="0.8585" stop-color="#DC0436"/>
<stop offset="1" stop-color="#E60039"/>
</linearGradient>
</defs>
</svg>
