<svg width="18" height="19" viewBox="0 0 18 19" fill="none" xmlns="http://www.w3.org/2000/svg">
<path d="M13.371 15.827L16.211 13.031L15.585 12.404L13.371 14.587L12.416 13.612L11.789 14.244L13.371 15.827ZM2.77 4.731H13.232V3.731H2.769L2.77 4.731ZM14 18.116C12.886 18.116 11.941 17.7277 11.165 16.951C10.3883 16.175 10 15.23 10 14.116C10 13.002 10.3883 12.0567 11.165 11.28C11.9417 10.5033 12.8867 10.1153 14 10.116C15.1133 10.1167 16.0587 10.5047 16.836 11.28C17.6133 12.0553 18.0013 13.0007 18 14.116C18 15.2293 17.612 16.1743 16.836 16.951C16.0587 17.7277 15.1133 18.116 14 18.116ZM0 16.769V0H16V7.56C15.4053 7.36467 14.796 7.26433 14.172 7.259C13.548 7.25367 12.933 7.334 12.327 7.5H2.769V8.5H10.081C9.57967 8.84733 9.13767 9.255 8.755 9.723C8.37233 10.191 8.057 10.7063 7.809 11.269H2.77V12.269H7.48C7.408 12.5383 7.352 12.81 7.312 13.084C7.272 13.358 7.25167 13.644 7.251 13.942C7.251 14.3987 7.29867 14.8517 7.394 15.301C7.48933 15.7503 7.63267 16.1833 7.824 16.6L7.79 16.634L6.655 15.808L5.309 16.769L3.963 15.808L2.617 16.769L1.27 15.808L0 16.769Z" fill="black"/>
</svg>
