<svg width="157" height="30" viewBox="0 0 157 30" fill="none" xmlns="http://www.w3.org/2000/svg">
<path d="M8.35673 17.7434H11.5905L13.2161 19.8348L14.8154 21.6977L17.8295 25.4763H14.2794L12.2056 22.9279L11.1423 21.4165L8.35673 17.7434ZM18.1019 15.0018C18.1019 16.9643 17.7299 18.6339 16.9859 20.0106C16.2477 21.3872 15.2401 22.4388 13.963 23.1652C12.6918 23.8858 11.2624 24.246 9.67483 24.246C8.07554 24.246 6.64028 23.8828 5.36905 23.1564C4.09782 22.43 3.09313 21.3785 2.355 20.0018C1.61687 18.6251 1.2478 16.9584 1.2478 15.0018C1.2478 13.0393 1.61687 11.3697 2.355 9.99303C3.09313 8.61635 4.09782 7.56773 5.36905 6.84717C6.64028 6.12075 8.07554 5.75754 9.67483 5.75754C11.2624 5.75754 12.6918 6.12075 13.963 6.84717C15.2401 7.56773 16.2477 8.61635 16.9859 9.99303C17.7299 11.3697 18.1019 13.0393 18.1019 15.0018ZM14.2442 15.0018C14.2442 13.7306 14.0538 12.6585 13.6731 11.7856C13.2981 10.9128 12.768 10.2508 12.0826 9.79971C11.3971 9.34862 10.5946 9.12308 9.67483 9.12308C8.75509 9.12308 7.95252 9.34862 7.26711 9.79971C6.5817 10.2508 6.0486 10.9128 5.66782 11.7856C5.29289 12.6585 5.10543 13.7306 5.10543 15.0018C5.10543 16.273 5.29289 17.3451 5.66782 18.2179C6.0486 19.0908 6.5817 19.7528 7.26711 20.2039C7.95252 20.655 8.75509 20.8805 9.67483 20.8805C10.5946 20.8805 11.3971 20.655 12.0826 20.2039C12.768 19.7528 13.2981 19.0908 13.6731 18.2179C14.0538 17.3451 14.2442 16.273 14.2442 15.0018ZM30.5516 6.00359H34.3565V17.6907C34.3565 19.0029 34.0431 20.1512 33.4163 21.1353C32.7953 22.1195 31.9254 22.8869 30.8065 23.4376C29.6875 23.9824 28.3841 24.2548 26.8961 24.2548C25.4023 24.2548 24.0959 23.9824 22.977 23.4376C21.8581 22.8869 20.9881 22.1195 20.3671 21.1353C19.7462 20.1512 19.4357 19.0029 19.4357 17.6907V6.00359H23.2406V17.3656C23.2406 18.051 23.39 18.6602 23.6887 19.1933C23.9934 19.7264 24.421 20.1453 24.9717 20.4499C25.5224 20.7546 26.1638 20.9069 26.8961 20.9069C27.6342 20.9069 28.2757 20.7546 28.8205 20.4499C29.3712 20.1453 29.7959 19.7264 30.0947 19.1933C30.3993 18.6602 30.5516 18.051 30.5516 17.3656V6.00359ZM39.8072 6.00359V24H36.0023V6.00359H39.8072ZM57.3317 12.3041H53.4828C53.4125 11.8061 53.269 11.3638 53.0522 10.9772C52.8355 10.5847 52.5572 10.2508 52.2174 9.97545C51.8777 9.70012 51.4852 9.48922 51.0399 9.34277C50.6006 9.19631 50.1231 9.12308 49.6076 9.12308C48.6762 9.12308 47.8648 9.35448 47.1735 9.81728C46.4823 10.2742 45.9462 10.9421 45.5655 11.8208C45.1847 12.6937 44.9943 13.754 44.9943 15.0018C44.9943 16.2847 45.1847 17.3627 45.5655 18.2355C45.9521 19.1084 46.4911 19.7674 47.1823 20.2127C47.8736 20.6579 48.6732 20.8805 49.5813 20.8805C50.0909 20.8805 50.5625 20.8131 50.996 20.6784C51.4354 20.5437 51.8249 20.3474 52.1647 20.0896C52.5045 19.826 52.7857 19.5068 53.0083 19.1318C53.2368 18.7569 53.3949 18.3293 53.4828 17.8489L57.3317 17.8665C57.2321 18.6925 56.9831 19.4892 56.5847 20.2566C56.1922 21.0182 55.6621 21.7007 54.9942 22.304C54.3323 22.9016 53.5414 23.3761 52.6217 23.7276C51.7078 24.0732 50.6738 24.246 49.5197 24.246C47.9146 24.246 46.4793 23.8828 45.214 23.1564C43.9544 22.43 42.9586 21.3785 42.2263 20.0018C41.4999 18.6251 41.1366 16.9584 41.1366 15.0018C41.1366 13.0393 41.5057 11.3697 42.2439 9.99303C42.982 8.61635 43.9837 7.56773 45.2491 6.84717C46.5145 6.12075 47.938 5.75754 49.5197 5.75754C50.5625 5.75754 51.5291 5.904 52.4196 6.19691C53.3159 6.48982 54.1096 6.91747 54.8009 7.47986C55.4922 8.03639 56.0546 8.71887 56.4881 9.5273C56.9274 10.3357 57.2086 11.2613 57.3317 12.3041ZM58.5754 24V6.00359H62.3803V13.9385H62.6176L69.0938 6.00359H73.6544L66.9761 14.0616L73.7335 24H69.1817L64.252 16.6011L62.3803 18.8858V24H58.5754ZM88.1564 11.1793C88.0861 10.4705 87.7844 9.9198 87.2513 9.5273C86.7182 9.1348 85.9947 8.93855 85.0808 8.93855C84.4599 8.93855 83.9356 9.02642 83.5079 9.20217C83.0803 9.37206 82.7522 9.60931 82.5237 9.91394C82.3011 10.2186 82.1898 10.5642 82.1898 10.9508C82.1781 11.273 82.2455 11.5542 82.3919 11.7944C82.5442 12.0346 82.7522 12.2426 83.0158 12.4183C83.2794 12.5882 83.5841 12.7376 83.9297 12.8665C84.2753 12.9895 84.6444 13.0949 85.0369 13.1828L86.6538 13.5695C87.4388 13.7452 88.1593 13.9795 88.8155 14.2724C89.4716 14.5654 90.0398 14.9256 90.5202 15.3533C91.0006 15.7809 91.3726 16.2847 91.6362 16.8647C91.9057 17.4447 92.0433 18.1096 92.0492 18.8594C92.0433 19.9608 91.7621 20.9157 91.2056 21.7241C90.6549 22.5267 89.8582 23.1506 88.8155 23.5958C87.7785 24.0351 86.5278 24.2548 85.0633 24.2548C83.6104 24.2548 82.3451 24.0322 81.2672 23.587C80.1951 23.1418 79.3574 22.4827 78.754 21.6099C78.1564 20.7311 77.843 19.6444 77.8137 18.3498H81.4956C81.5366 18.9532 81.7094 19.457 82.0141 19.8612C82.3246 20.2595 82.7376 20.5612 83.2531 20.7663C83.7745 20.9654 84.3632 21.065 85.0193 21.065C85.6637 21.065 86.2232 20.9713 86.6977 20.7838C87.1781 20.5964 87.5501 20.3357 87.8137 20.0018C88.0773 19.6679 88.2091 19.2841 88.2091 18.8506C88.2091 18.4464 88.089 18.1066 87.8488 17.8313C87.6145 17.556 87.2689 17.3216 86.8119 17.1283C86.3609 16.935 85.8073 16.7593 85.1511 16.6011L83.1916 16.109C81.6743 15.7399 80.4763 15.1629 79.5976 14.3779C78.7188 13.5929 78.2824 12.5355 78.2883 11.2057C78.2824 10.116 78.5724 9.16409 79.1582 8.3498C79.7499 7.53551 80.5612 6.89989 81.5923 6.44295C82.6233 5.98601 83.795 5.75754 85.1072 5.75754C86.4429 5.75754 87.6087 5.98601 88.6046 6.44295C89.6063 6.89989 90.3855 7.53551 90.942 8.3498C91.4985 9.16409 91.7856 10.1073 91.8031 11.1793H88.1564ZM95.8149 24H91.7376L97.9502 6.00359H102.854L109.057 24H104.98L100.472 10.116H100.332L95.8149 24ZM95.5601 16.9262H105.191V19.8963H95.5601V16.9262ZM109.739 24V6.00359H113.544V20.8629H121.259V24H109.739ZM122.294 24V6.00359H134.42V9.14066H126.099V13.4289H133.797V16.5659H126.099V20.8629H134.456V24H122.294Z" fill="url(#paint0_linear_586_3724)"/>
<path d="M138.317 23.2013C137.952 23.8356 138.044 24.633 138.538 25.1265C139.033 25.621 139.801 25.6816 140.393 25.2737L150.933 18.0183C151.376 17.7136 151.644 17.1973 151.642 16.6536C151.641 16.1096 151.37 15.6157 150.926 15.3486L146.836 12.8882C146.482 12.6754 146.371 12.1961 146.589 11.8185L149.644 6.50644C150.008 5.8722 149.917 5.07478 149.422 4.58131C148.928 4.08677 148.16 4.02616 147.567 4.43404L137.027 11.6895C136.585 11.9942 136.316 12.5105 136.318 13.0542C136.32 13.5982 136.591 14.0921 137.035 14.3592L141.125 16.8196C141.478 17.0324 141.589 17.5116 141.372 17.8893L138.317 23.2013ZM148.362 5.7354L145.307 11.0474C144.655 12.1811 144.987 13.6177 146.049 14.2566L150.139 16.7169L139.599 23.9724L142.654 18.6603C143.306 17.5266 142.974 16.09 141.912 15.4512L137.822 12.9909L148.362 5.7354Z" fill="#01BEAF"/>
<path d="M138.317 23.2013C137.952 23.8356 138.044 24.633 138.538 25.1265C139.033 25.621 139.801 25.6816 140.393 25.2737L150.933 18.0183C151.376 17.7136 151.644 17.1973 151.642 16.6536C151.641 16.1096 151.37 15.6157 150.926 15.3486L146.836 12.8882C146.482 12.6754 146.371 12.1961 146.589 11.8185L149.644 6.50644C150.008 5.8722 149.917 5.07478 149.422 4.58131C148.928 4.08677 148.16 4.02616 147.567 4.43404L137.027 11.6895C136.585 11.9942 136.316 12.5105 136.318 13.0542C136.32 13.5982 136.591 14.0921 137.035 14.3592L141.125 16.8196C141.478 17.0324 141.589 17.5116 141.372 17.8893L138.317 23.2013ZM148.362 5.7354L145.307 11.0474C144.655 12.1811 144.987 13.6177 146.049 14.2566L150.139 16.7169L139.599 23.9724L142.654 18.6603C143.306 17.5266 142.974 16.09 141.912 15.4512L137.822 12.9909L148.362 5.7354Z" stroke="#01BEAF"/>
<path d="M138 13L148 6C142.4 12.4 147 16 150 17L139.5 24C145.1 16.8 141 13.6667 138 13Z" fill="url(#paint1_linear_586_3724)" stroke="#01BEAF"/>
<defs>
<linearGradient id="paint0_linear_586_3724" x1="-9.07069e-09" y1="15" x2="133.697" y2="23.0313" gradientUnits="userSpaceOnUse">
<stop stop-color="#007BFF"/>
<stop offset="1" stop-color="#00BFAF"/>
</linearGradient>
<linearGradient id="paint1_linear_586_3724" x1="141.5" y1="24" x2="182.5" y2="26" gradientUnits="userSpaceOnUse">
<stop stop-color="#01BEAF"/>
<stop offset="1" stop-color="#005851"/>
</linearGradient>
</defs>
</svg>
