<svg width="24" height="24" viewBox="0 0 24 24" fill="none" xmlns="http://www.w3.org/2000/svg">
<path fill-rule="evenodd" clip-rule="evenodd" d="M8.4173 3.25C8.6973 2.66 9.3013 2.25 9.9993 2.25H13.9993C14.6973 2.25 15.3003 2.66 15.5813 3.25C16.2643 3.256 16.7973 3.287 17.2733 3.473C17.8415 3.69527 18.3357 4.07301 18.6993 4.563C19.0663 5.057 19.2393 5.69 19.4753 6.561L20.2173 9.283L20.4973 10.124L20.5213 10.154C21.4223 11.308 20.9933 13.024 20.1353 16.455C19.5893 18.638 19.3173 19.729 18.5033 20.365C17.6893 21 16.5643 21 14.3143 21H9.6843C7.4343 21 6.3093 21 5.4953 20.365C4.6813 19.729 4.4083 18.638 3.8633 16.455C3.0053 13.024 2.5763 11.308 3.4773 10.154L3.5013 10.124L3.7813 9.283L4.5233 6.561C4.7603 5.69 4.9333 5.056 5.2993 4.562C5.66303 4.07238 6.1572 3.695 6.7253 3.473C7.2013 3.287 7.7333 3.255 8.4173 3.25ZM8.4193 4.753C7.7573 4.76 7.4913 4.785 7.2713 4.871C6.96527 4.99068 6.69911 5.19411 6.5033 5.458C6.3273 5.695 6.2233 6.026 5.9333 7.093L5.3633 9.182C6.3833 9 7.7773 9 9.6833 9H14.3143C16.2213 9 17.6143 9 18.6343 9.18L18.0653 7.091C17.7753 6.024 17.6713 5.693 17.4953 5.456C17.2995 5.19211 17.0333 4.98868 16.7273 4.869C16.5073 4.783 16.2413 4.758 15.5793 4.751C15.4373 5.04985 15.2135 5.30232 14.9339 5.47914C14.6542 5.65596 14.3302 5.74987 13.9993 5.75H9.9993C9.66855 5.74996 9.34457 5.6562 9.06493 5.47956C8.78529 5.30293 8.56143 5.05166 8.4193 4.753Z" fill="black"/>
</svg>
