<svg width="34" height="24" viewBox="0 0 34 24" fill="none" xmlns="http://www.w3.org/2000/svg">
<path d="M28 18.5C27.6022 18.5 27.2206 18.342 26.9393 18.0607C26.658 17.7794 26.5 17.3978 26.5 17C26.5 16.6022 26.658 16.2206 26.9393 15.9393C27.2206 15.658 27.6022 15.5 28 15.5C28.3978 15.5 28.7794 15.658 29.0607 15.9393C29.342 16.2206 29.5 16.6022 29.5 17C29.5 17.3978 29.342 17.7794 29.0607 18.0607C28.7794 18.342 28.3978 18.5 28 18.5ZM29.5 9.5L31.46 12H27V9.5M16 18.5C15.6022 18.5 15.2206 18.342 14.9393 18.0607C14.658 17.7794 14.5 17.3978 14.5 17C14.5 16.6022 14.658 16.2206 14.9393 15.9393C15.2206 15.658 15.6022 15.5 16 15.5C16.3978 15.5 16.7794 15.658 17.0607 15.9393C17.342 16.2206 17.5 16.6022 17.5 17C17.5 17.3978 17.342 17.7794 17.0607 18.0607C16.7794 18.342 16.3978 18.5 16 18.5ZM30 8H27V4H13C11.89 4 11 4.89 11 6V17H13C13 17.7956 13.3161 18.5587 13.8787 19.1213C14.4413 19.6839 15.2044 20 16 20C16.7956 20 17.5587 19.6839 18.1213 19.1213C18.6839 18.5587 19 17.7956 19 17H25C25 17.7956 25.3161 18.5587 25.8787 19.1213C26.4413 19.6839 27.2044 20 28 20C28.7956 20 29.5587 19.6839 30.1213 19.1213C30.6839 18.5587 31 17.7956 31 17H33V12L30 8Z" fill="#266DB0"/>
<path d="M3 5C2.44772 5 2 5.44772 2 6C2 6.55228 2.44772 7 3 7V5ZM10 5L3 5V7L10 7V5Z" fill="#97CCFF"/>
<path d="M1 8C0.447715 8 -4.82823e-08 8.44772 0 9C4.82823e-08 9.55229 0.447715 10 1 10L1 8ZM10 8L1 8L1 10L10 10L10 8Z" fill="#97CCFF"/>
<path d="M4 11C3.44772 11 3 11.4477 3 12C3 12.5523 3.44772 13 4 13L4 11ZM10 11L4 11L4 13L10 13L10 11Z" fill="#97CCFF"/>
</svg>
