<svg width="16" height="10" viewBox="0 0 16 10" fill="none" xmlns="http://www.w3.org/2000/svg">
<path d="M0 1.5C0 1.10218 0.158035 0.720644 0.43934 0.43934C0.720644 0.158035 1.10218 0 1.5 0H14.5C14.8978 0 15.2794 0.158035 15.5607 0.43934C15.842 0.720644 16 1.10218 16 1.5V3C16 3.13261 15.9473 3.25979 15.8536 3.35355C15.7598 3.44732 15.6326 3.5 15.5 3.5C15.1022 3.5 14.7206 3.65804 14.4393 3.93934C14.158 4.22064 14 4.60218 14 5C14 5.39782 14.158 5.77936 14.4393 6.06066C14.7206 6.34196 15.1022 6.5 15.5 6.5C15.6326 6.5 15.7598 6.55268 15.8536 6.64645C15.9473 6.74021 16 6.86739 16 7V8.5C16 8.89782 15.842 9.27936 15.5607 9.56066C15.2794 9.84196 14.8978 10 14.5 10H1.5C1.10218 10 0.720644 9.84196 0.43934 9.56066C0.158035 9.27936 0 8.89782 0 8.5L0 7C0 6.86739 0.0526784 6.74021 0.146447 6.64645C0.240215 6.55268 0.367392 6.5 0.5 6.5C0.897825 6.5 1.27936 6.34196 1.56066 6.06066C1.84196 5.77936 2 5.39782 2 5C2 4.60218 1.84196 4.22064 1.56066 3.93934C1.27936 3.65804 0.897825 3.5 0.5 3.5C0.367392 3.5 0.240215 3.44732 0.146447 3.35355C0.0526784 3.25979 0 3.13261 0 3V1.5ZM1.5 1C1.36739 1 1.24021 1.05268 1.14645 1.14645C1.05268 1.24021 1 1.36739 1 1.5V2.55C1.56514 2.66476 2.07324 2.97136 2.43819 3.41787C2.80314 3.86438 3.00251 4.42332 3.00251 5C3.00251 5.57668 2.80314 6.13562 2.43819 6.58213C2.07324 7.02864 1.56514 7.33524 1 7.45V8.5C1 8.63261 1.05268 8.75979 1.14645 8.85355C1.24021 8.94732 1.36739 9 1.5 9H14.5C14.6326 9 14.7598 8.94732 14.8536 8.85355C14.9473 8.75979 15 8.63261 15 8.5V7.45C14.4349 7.33524 13.9268 7.02864 13.5618 6.58213C13.1969 6.13562 12.9975 5.57668 12.9975 5C12.9975 4.42332 13.1969 3.86438 13.5618 3.41787C13.9268 2.97136 14.4349 2.66476 15 2.55V1.5C15 1.36739 14.9473 1.24021 14.8536 1.14645C14.7598 1.05268 14.6326 1 14.5 1H1.5Z" fill="#266DB0"/>
</svg>
