<svg width="28" height="25" viewBox="0 0 28 25" fill="none" xmlns="http://www.w3.org/2000/svg">
<mask id="mask0_542_3686" style="mask-type:luminance" maskUnits="userSpaceOnUse" x="1" y="2" width="22" height="19">
<path d="M4.5 8L17 3L19 8" stroke="white" stroke-width="2" stroke-linecap="round" stroke-linejoin="round"/>
<path d="M2 8H22V11C20.5 11 19 12 19 13.75C19 15.5 20.5 17 22 17V20H2V17C3.5 17 5 16 5 14C5 12 3.5 11 2 11V8Z" fill="white" stroke="white" stroke-width="2" stroke-linecap="round" stroke-linejoin="round"/>
<path d="M8.5 12.6924H11.5M8.5 15.6924H15.5" stroke="black" stroke-width="2" stroke-linecap="round"/>
</mask>
<g mask="url(#mask0_542_3686)">
<path d="M0 0H24V24H0V0Z" fill="#266DB0"/>
</g>
<circle cx="20.5" cy="17.5" r="6.5" fill="#97CCFF"/>
<g clip-path="url(#clip0_542_3686)">
<path d="M23.8403 15.6215L23.1028 14.2051C23.0369 14.0779 22.9198 14 22.7948 14H18.2039C18.0789 14 17.9619 14.0779 17.896 14.2051L17.1585 15.6215C16.7778 16.3529 17.1153 17.3701 17.8266 17.4863C17.8778 17.4945 17.93 17.4986 17.9823 17.4986C18.3187 17.4986 18.6164 17.3209 18.821 17.0461C19.0255 17.3209 19.3244 17.4986 19.6596 17.4986C19.996 17.4986 20.2937 17.3209 20.4982 17.0461C20.7028 17.3209 21.0016 17.4986 21.3369 17.4986C21.6732 17.4986 21.971 17.3209 22.1755 17.0461C22.3812 17.3209 22.6789 17.4986 23.0141 17.4986C23.0675 17.4986 23.1187 17.4945 23.1698 17.4863C23.8835 17.3715 24.2221 16.3543 23.8403 15.6215ZM23.0164 17.9375C22.9028 17.9375 22.7903 17.917 22.6812 17.8855V19.25H18.3175V17.8855C18.2085 17.9156 18.096 17.9375 17.9823 17.9375C17.9141 17.9375 17.8448 17.932 17.7778 17.9211C17.7141 17.9102 17.6516 17.8924 17.5914 17.8719V20.5625C17.5914 20.8045 17.7539 21 17.955 21H23.046C23.2471 21 23.4096 20.8045 23.4096 20.5625V17.8719C23.3482 17.8938 23.2869 17.9115 23.2232 17.9211C23.1539 17.932 23.0857 17.9375 23.0164 17.9375Z" fill="#266DB0"/>
</g>
<defs>
<clipPath id="clip0_542_3686">
<rect width="7" height="7" fill="white" transform="translate(17 14)"/>
</clipPath>
</defs>
</svg>
